<svg width="70" height="101" viewBox="0 0 70 101" fill="none" xmlns="http://www.w3.org/2000/svg">
<path d="M29.7761 0.207237C28.6805 0.518135 27.0668 1.362 26.0749 2.16145C21.5595 5.81817 18.6874 13.1464 17.4587 24.1758C17.3254 25.4046 17.207 26.4261 17.1922 26.4409C17.1774 26.4853 7.92454 27.6697 7.65806 27.6697C7.58403 27.6697 7.4804 27.951 7.43599 28.2915C7.27314 29.4462 6.32565 37.7368 5.64464 43.7326C5.27453 46.9896 4.71195 51.9195 4.38625 54.688C4.07536 57.4564 3.49798 62.4159 3.12787 65.7174C2.75775 69.0188 2.28401 73.1048 2.09155 74.8222C1.88428 76.5247 1.48456 79.9889 1.20328 82.5205C0.921989 85.0373 0.522266 88.5756 0.315002 90.3521C0.107739 92.1435 -0.0255021 93.6239 0.00410695 93.6535C0.0781297 93.7276 1.46976 93.9644 5.05246 94.4974C11.1667 95.4153 18.8207 96.57 22.3738 97.1178C26.5635 97.7692 42.6116 100.182 45.8686 100.671L47.8968 100.967L51.2722 100.005C53.1228 99.4865 56.9424 98.4206 59.7553 97.6508C62.5681 96.8661 66.0176 95.9186 67.4388 95.5337L70 94.8231L69.926 94.0829C69.8816 93.6683 69.4374 90.3669 68.9489 86.7398C68.4603 83.1127 67.8533 78.6121 67.6165 76.7467C67.3796 74.8666 66.4765 67.8788 65.6031 61.202C64.7444 54.5251 63.9153 48.0999 63.7525 46.9156C63.2935 43.4809 62.1684 34.6722 61.7539 31.3708C61.5466 29.6979 61.3541 28.1878 61.3097 28.0102C61.2357 27.6993 61.1617 27.6993 58.3932 27.6253C56.2762 27.566 55.0622 27.4476 53.6854 27.1959L51.8348 26.8406L51.7312 24.9308C51.3907 18.8906 49.7918 12.7763 47.5119 8.79388C46.5348 7.07655 45.7946 6.04024 44.7138 4.79665C42.9965 2.82765 40.3021 1.08071 38.4515 0.725403C37.4892 0.547745 35.9643 0.532944 35.8607 0.695793C35.8163 0.769814 35.2389 0.636574 34.5579 0.414505C33.5364 0.0591965 33.0923 -2.28882e-05 31.9227 -2.28882e-05C31.1529 -2.28882e-05 30.1906 0.103607 29.7761 0.207237ZM31.9671 2.13184C30.5607 3.331 29.1691 5.68492 28.4732 8.14248C27.3185 12.1397 27.1705 17.8691 28.0883 24.1018C28.2364 25.1973 28.34 26.1152 28.3104 26.1596C28.266 26.1892 26.1489 26.1596 23.6026 26.1004L18.9687 25.9672L19.0131 25.3009C19.0872 24.235 19.6201 20.3118 19.8718 18.935C21.826 8.30533 26.3858 1.7025 31.8487 1.62848L32.5889 1.61367L31.9671 2.13184ZM39.6951 2.87206C42.5228 4.20447 44.8175 6.83968 46.8161 10.9998C47.3194 12.0657 47.9708 13.6646 48.2521 14.5676C49.2292 17.6174 50.1323 22.873 50.1323 25.5378V26.5889L46.1795 26.5297C43.9884 26.5001 41.6493 26.4409 40.9831 26.3965L39.7395 26.3077L39.8431 25.4046C39.9024 24.9012 40.0652 23.4208 40.2132 22.118C40.8498 16.7439 40.9535 13.4869 40.5834 10.3484C40.2281 7.29862 39.399 4.84106 38.1554 3.19776C37.8149 2.76843 37.5484 2.3539 37.5484 2.29469C37.5484 2.08743 38.6736 2.39831 39.6951 2.87206ZM35.994 3.28658C37.4596 4.75224 38.3775 6.83968 38.8216 9.72656C39.1917 12.0657 39.1473 16.3442 38.7328 20.0453C38.5551 21.6738 38.3183 23.7317 38.2294 24.6347L38.0666 26.2632L34.0842 26.2188C31.8931 26.204 30.0721 26.1744 30.0573 26.1448C30.0129 26.1004 29.4503 22.0439 29.2431 20.3414C29.0062 18.18 29.0358 13.3981 29.3171 11.6067C29.7761 8.61623 30.8864 5.80335 32.2188 4.24888C32.8258 3.55306 34.4839 2.3539 34.854 2.3539C34.9724 2.3539 35.4758 2.76842 35.994 3.28658ZM52.5454 27.7733C52.6047 27.8917 52.2938 33.3694 51.8348 40.4756C51.7164 42.4298 51.1834 51.0905 50.6505 59.7215C50.1323 68.3526 49.6586 75.8437 49.6141 76.3766C49.5697 76.9096 49.3032 81.0697 49.022 85.6295C48.4298 95.0896 48.0597 100.552 47.9856 100.641C47.9264 100.686 40.4205 99.5754 22.2257 96.7921C17.4143 96.0667 14.1869 95.5781 6.71057 94.453C3.45357 93.9644 0.788748 93.5499 0.773943 93.5203C0.744334 93.4907 0.847966 92.5432 0.996011 91.4032C1.23288 89.4935 1.603 86.3105 2.75775 76.2286C2.99463 74.1559 3.39435 70.6917 3.63122 68.5302C3.8829 66.3688 4.2234 63.3338 4.38625 61.7942C4.5491 60.2397 4.88961 57.1751 5.12648 54.9841C5.57062 51.0164 6.829 39.2764 7.59884 31.8446L7.99856 27.9658H12.5139H17.0441L16.9405 29.8904L16.8369 31.8001L16.3631 32.2295C15.993 32.57 15.8894 32.7921 15.8302 33.3842C15.7265 34.3761 16.0374 34.9535 16.8665 35.3532C17.6659 35.7382 17.8732 35.7382 18.6134 35.3532C19.0576 35.1312 19.2944 34.8795 19.5017 34.3909C19.8866 33.5175 19.7682 32.8365 19.0724 32.1555L18.5542 31.6373L18.6578 29.8459C18.7171 28.854 18.7911 28.025 18.8355 27.9806C18.8799 27.9362 23.1732 27.8769 28.3992 27.8473L37.8889 27.7881L37.8001 29.239C37.7409 30.0532 37.6965 31.0155 37.6965 31.4004C37.6965 31.9482 37.6373 32.111 37.4004 32.1851C37.2523 32.2295 36.9711 32.5108 36.7934 32.792C36.5417 33.2066 36.4973 33.4731 36.5565 34.08C36.6157 34.7018 36.7046 34.9091 37.1635 35.3236C37.6077 35.7382 37.8001 35.8122 38.4367 35.8122C39.0437 35.8122 39.251 35.7382 39.6803 35.3532C40.6426 34.5242 40.687 33.3398 39.8135 32.4663L39.3102 31.963L39.4582 30.0088C39.5471 28.9281 39.6211 27.9954 39.6211 27.9362C39.6211 27.8769 42.2415 27.8029 45.4393 27.7733C48.6222 27.7585 51.5239 27.7289 51.8644 27.6993C52.2049 27.6845 52.5158 27.7141 52.5454 27.7733ZM57.1497 29.4758C57.2533 30.2457 57.6974 37.7664 58.2008 46.9156C58.9558 60.8467 59.2963 66.5612 60.229 81.0993L60.3918 83.8233L60.9396 84.5043C61.2505 84.8744 62.1832 85.9552 63.0123 86.8879C64.9516 89.0641 68.2679 92.9429 68.9045 93.7868C69.4522 94.527 69.4966 94.7343 69.1117 94.7343C68.9637 94.7343 68.5492 94.8231 68.179 94.9415C67.4684 95.1784 64.6408 95.963 56.2022 98.2726C49.0368 100.227 48.6518 100.33 48.6518 100.256C48.6518 100.227 48.9775 99.6494 49.3773 98.9832C49.777 98.317 50.5024 97.103 50.9762 96.2887C52.0421 94.527 53.9963 91.3292 56.5575 87.1988C57.6234 85.4814 58.3932 84.075 58.3488 83.9418C58.26 83.6309 57.6382 66.7241 57.1645 51.2089C56.5575 31.4596 56.5131 28.854 56.8536 28.854C57.0016 28.854 57.1052 29.0761 57.1497 29.4758Z" fill="#008CFF"/>
<path d="M58.9854 85.1705C58.5117 85.9107 58.4821 85.9996 58.793 85.9996C59.015 85.9996 59.7553 85.0225 59.7553 84.7116C59.7553 84.3119 59.3703 84.5487 58.9854 85.1705Z" fill="#008CFF"/>
<path d="M60.4955 85.6739C60.4955 85.9256 61.7835 87.332 62.0204 87.332C62.3016 87.332 62.0648 86.8435 61.443 86.1625C60.7176 85.363 60.4955 85.2446 60.4955 85.6739Z" fill="#008CFF"/>
<path d="M57.6086 87.184C57.2237 87.7909 57.1349 88.2203 57.3865 88.2203C57.5938 88.2203 58.4377 86.8731 58.334 86.725C58.186 86.4733 57.9787 86.6066 57.6086 87.184Z" fill="#008CFF"/>
<path d="M62.6421 87.7909C62.5385 87.939 62.8346 88.3387 63.56 89.0493C63.7673 89.2714 63.9301 89.3158 64.0338 89.2122C64.1226 89.1234 63.9745 88.8421 63.56 88.3535C62.9086 87.5985 62.7902 87.5245 62.6421 87.7909Z" fill="#008CFF"/>
<path d="M56.291 89.1086C55.5804 90.1893 55.8765 90.5446 56.6315 89.5231C57.1496 88.8273 57.1793 88.7237 56.8832 88.62C56.7499 88.5608 56.5279 88.7533 56.291 89.1086Z" fill="#008CFF"/>
<path d="M64.2707 89.5527C64.2262 89.6267 64.4187 89.9376 64.7 90.2485C65.0997 90.6778 65.2478 90.7666 65.3958 90.6334C65.529 90.5002 65.455 90.3373 65.0701 89.9376C64.5519 89.375 64.4187 89.3158 64.2707 89.5527Z" fill="#008CFF"/>
<path d="M54.9438 91.2848C54.6921 91.6697 54.6329 91.8622 54.7513 91.9066C54.9586 91.9806 55.7876 91.0479 55.6692 90.8555C55.5211 90.6186 55.3287 90.737 54.9438 91.2848Z" fill="#008CFF"/>
<path d="M66.1212 91.5217C66.1212 91.7586 67.9126 93.5499 68.1494 93.5499C68.4751 93.5499 68.179 93.0466 67.3204 92.1731C66.5209 91.3589 66.1212 91.1368 66.1212 91.5217Z" fill="#008CFF"/>
<path d="M53.9075 92.8245C53.4041 93.6091 53.3449 93.8016 53.5225 93.9052C53.7002 94.0236 54.7513 92.5284 54.6329 92.3359C54.4848 92.099 54.2776 92.2323 53.9075 92.8245Z" fill="#008CFF"/>
<path d="M52.6195 94.8379C52.0273 95.5633 51.7608 96.2147 52.0569 96.2147C52.2494 96.2147 53.2413 94.8527 53.1524 94.7047C53.034 94.5122 52.8563 94.5714 52.6195 94.8379Z" fill="#008CFF"/>
<path d="M50.4728 97.8728C49.7622 99.0128 49.6289 99.3237 49.8806 99.3237C50.1619 99.3237 51.4647 97.5323 51.4647 97.1622C51.4647 96.6885 51.0058 97.0142 50.4728 97.8728Z" fill="#008CFF"/>
</svg>
